<?xml version="1.0" standalone="no"?><!DOCTYPE svg PUBLIC "-//W3C//DTD SVG 1.1//EN" "http://www.w3.org/Graphics/SVG/1.1/DTD/svg11.dtd"><svg t="1773299285508" class="icon" viewBox="0 0 1024 1024" version="1.1" xmlns="http://www.w3.org/2000/svg" p-id="1769" xmlns:xlink="http://www.w3.org/1999/xlink" width="200" height="200"><path d="M184.32 11.59168h655.36a163.84 163.84 0 0 1 163.84 163.84v655.36a163.84 163.84 0 0 1-163.84 163.84H184.32a163.84 163.84 0 0 1-163.84-163.84v-655.36A163.84 163.84 0 0 1 176.128 11.79648L184.32 11.59168z" fill="#BCE5FF" p-id="1770"></path><path d="M219.66848 352.70656l-1.06496 0.53248v298.92608l293.15072 154.2144V498.4832z" fill="#FFFFFF" p-id="1771"></path><path d="M804.33152 352.99328L511.75424 199.0656 231.0144 346.64448l-11.34592 6.06208 292.0448 145.8176 3.44064-1.6384 289.9968-143.36v-0.28672l-0.8192-0.24576z m-288.48128 143.93344l-4.096 4.096 4.096-4.096z" fill="#00A0E9" p-id="1772"></path><path d="M862.86336 324.8128a49.02912 49.02912 0 0 0-20.84864-21.9136l-307.85536-162.89792a48.25088 48.25088 0 0 0-44.81024 0l-307.6096 161.83296a47.7184 47.7184 0 0 0-12.6976 11.34592c-3.03104 3.11296-5.69344 6.5536-7.90528 10.28096-3.2768 6.5536-5.12 13.76256-5.28384 21.0944v316.33408c0.2048 18.0224 10.32192 34.44736 26.37824 42.68032l307.6096 161.87392c6.71744 3.80928 14.21312 5.98016 21.9136 6.30784h3.6864c6.51264-0.32768 12.9024-2.048 18.71872-4.99712l307.6096-161.87392c16.05632-8.192 26.2144-24.65792 26.37824-42.68032V344.55552a46.40768 46.40768 0 0 0-5.3248-19.78368z m-57.7536 28.672l-289.95584 143.44192-3.39968 1.8432v307.6096L218.3168 652.16512V353.23904l11.30496-6.06208 282.09152-148.11136 292.57728 153.92768 0.8192 0.53248z" fill="#0075C2" p-id="1773"></path></svg>